<svg id="svg" version="1.1"
    xmlns="http://www.w3.org/2000/svg"
    xmlns:xlink="http://www.w3.org/1999/xlink" width="400" height="400" viewBox="0, 0, 400,400">
    <g id="svgg">
        <path id="path0" d="M200.000 24.994 C 186.931 27.311,156.679 32.599,132.774 36.746 C 108.869 40.894,89.169 44.429,88.995 44.603 C 88.652 44.946,96.595 197.845,97.032 199.304 C 97.352 200.372,184.924 262.970,186.099 262.970 C 186.550 262.970,199.486 258.316,214.846 252.627 C 230.205 246.938,256.139 237.329,272.475 231.275 C 288.812 225.220,306.990 218.515,312.871 216.375 L 323.564 212.484 323.767 207.826 C 324.410 193.037,328.734 50.451,328.545 50.269 C 328.419 50.149,318.331 47.348,306.126 44.046 L 283.936 38.042 274.443 40.062 C 269.222 41.173,242.673 46.707,215.446 52.359 C 188.218 58.012,160.545 63.766,153.951 65.146 L 141.961 67.654 142.386 97.579 L 142.812 127.503 134.909 123.847 L 127.007 120.191 125.957 89.787 C 125.380 73.065,125.096 59.194,125.327 58.964 C 125.558 58.733,139.780 55.696,156.933 52.214 C 174.085 48.733,193.287 44.805,199.604 43.487 C 205.921 42.169,222.842 38.681,237.206 35.737 L 263.324 30.385 243.752 25.489 C 232.988 22.797,224.087 20.636,223.972 20.688 C 223.857 20.740,213.069 22.678,200.000 24.994 M315.794 89.307 C 315.519 100.960,314.913 129.386,314.447 152.475 C 313.981 175.564,313.414 196.302,313.186 198.558 L 312.771 202.661 308.267 204.230 C 305.789 205.094,287.366 211.750,267.327 219.023 C 207.963 240.565,200.269 243.305,199.973 243.009 C 199.818 242.854,199.582 209.795,199.449 169.545 L 199.208 96.363 257.030 82.326 C 288.832 74.606,315.176 68.251,315.573 68.204 C 316.002 68.153,316.091 76.710,315.794 89.307 M278.495 96.832 C 277.461 99.119,274.248 105.941,271.356 111.993 C 265.514 124.218,265.525 124.114,270.243 122.916 C 274.679 121.790,274.374 119.070,273.396 151.020 C 272.919 166.589,272.652 179.451,272.802 179.601 C 272.952 179.751,275.525 179.056,278.518 178.056 L 283.960 176.238 284.871 148.515 C 285.372 133.267,285.817 120.382,285.861 119.881 C 285.905 119.380,287.723 118.542,289.901 118.020 C 294.736 116.860,294.999 118.493,287.723 104.505 C 280.726 91.055,281.004 91.286,278.495 96.832 M240.058 106.337 C 239.675 107.317,236.293 114.500,232.542 122.300 C 225.033 137.910,225.126 137.495,229.431 136.300 C 231.105 135.835,232.743 135.452,233.069 135.450 C 233.396 135.448,233.663 148.494,233.663 164.441 C 233.663 187.938,233.859 193.362,234.695 193.041 C 235.263 192.823,237.969 192.016,240.709 191.247 C 246.924 189.503,246.253 192.865,246.938 160.051 L 247.525 131.983 251.354 131.007 C 253.460 130.470,255.338 129.876,255.527 129.687 C 256.003 129.212,242.126 104.606,241.367 104.577 C 241.029 104.565,240.440 105.356,240.058 106.337 M64.053 173.330 L 50.879 177.822 65.427 187.669 C 73.429 193.085,80.102 197.362,80.255 197.174 C 80.409 196.986,80.265 192.376,79.936 186.931 C 79.607 181.485,79.308 175.158,79.272 172.871 C 79.194 167.805,80.360 167.770,64.053 173.330 M18.218 188.273 C 9.723 191.139,2.684 193.554,2.575 193.639 C 2.369 193.801,4.449 216.612,5.186 222.274 C 5.571 225.232,6.182 225.977,11.716 230.238 C 15.074 232.823,38.673 250.950,64.158 270.520 C 89.644 290.090,125.180 317.389,143.129 331.185 L 175.763 356.268 193.822 348.056 L 211.881 339.845 212.101 329.672 L 212.321 319.499 243.784 305.538 C 261.089 297.860,275.782 291.374,276.436 291.125 C 277.460 290.736,277.587 291.987,277.359 300.188 C 277.214 305.421,277.252 309.703,277.443 309.703 C 278.105 309.703,307.725 296.119,308.319 295.543 C 308.647 295.226,309.182 290.709,309.507 285.505 L 310.099 276.045 339.010 263.190 C 354.911 256.120,368.038 250.327,368.182 250.316 C 368.429 250.298,368.000 255.916,367.054 265.102 L 366.630 269.214 380.741 262.803 C 388.502 259.277,394.953 256.315,395.077 256.221 C 395.432 255.952,397.603 230.512,397.614 226.496 L 397.624 222.892 369.716 208.502 C 354.367 200.588,341.581 194.368,341.302 194.680 C 341.024 194.992,340.585 200.467,340.326 206.847 L 339.856 218.447 354.178 226.914 C 362.188 231.649,368.198 235.681,367.814 236.061 C 367.437 236.435,364.520 237.849,361.332 239.204 L 355.536 241.667 347.075 237.106 C 342.421 234.598,336.641 231.492,334.229 230.204 L 329.844 227.863 315.435 233.337 C 307.511 236.348,301.019 239.027,301.009 239.291 C 300.998 239.554,306.158 243.081,312.475 247.129 C 318.792 251.176,323.960 254.732,323.960 255.032 C 323.960 255.331,320.887 256.911,317.132 258.542 L 310.303 261.508 297.730 253.130 C 290.815 248.522,284.985 244.752,284.774 244.752 C 284.564 244.752,277.523 247.463,269.127 250.776 C 260.731 254.089,253.003 257.131,251.955 257.536 C 250.217 258.208,251.247 259.021,263.638 266.756 C 271.112 271.421,277.228 275.433,277.228 275.670 C 277.228 276.469,262.970 282.149,261.948 281.758 C 261.393 281.544,254.823 277.431,247.348 272.616 L 233.757 263.863 215.797 270.149 C 205.919 273.607,197.632 276.436,197.381 276.436 C 197.130 276.436,203.854 281.101,212.324 286.802 C 220.793 292.504,227.814 297.258,227.925 297.367 C 229.093 298.515,211.802 304.288,210.141 303.305 C 209.094 302.685,169.691 275.446,122.580 242.772 C 75.468 210.099,36.189 183.298,35.293 183.214 C 34.397 183.130,26.713 185.406,18.218 188.273 M257.822 196.760 L 221.386 208.801 221.152 214.099 L 220.918 219.396 231.053 215.829 C 236.627 213.867,253.485 207.874,268.515 202.511 L 295.842 192.761 296.081 188.658 C 296.382 183.505,300.688 182.593,257.822 196.760 M65.525 240.270 C 66.345 241.061,68.580 259.605,67.933 260.252 C 67.374 260.811,20.872 224.851,20.066 223.236 C 19.558 222.219,18.886 217.710,18.574 213.217 L 18.007 205.048 41.281 222.192 C 54.081 231.621,64.991 239.756,65.525 240.270 M123.564 282.727 C 156.883 307.105,153.663 303.580,153.663 315.682 L 153.663 325.446 124.807 303.637 L 95.951 281.828 95.532 276.953 C 94.316 262.840,94.288 261.218,95.270 261.981 C 95.802 262.395,108.535 271.730,123.564 282.727 " stroke="none" fill="#8F929A" fill-rule="evenodd"></path>
    </g>
</svg>