<svg id="svg" version="1.1"
    xmlns="http://www.w3.org/2000/svg"
    xmlns:xlink="http://www.w3.org/1999/xlink" width="400" height="400" viewBox="0, 0, 400,400">
    <g id="svgg">
        <path id="path0" d="M291.948 27.694 C 291.669 43.864,294.325 42.225,267.655 42.692 C 215.183 43.613,175.723 54.986,132.319 81.699 C 120.770 88.807,107.809 97.811,108.073 98.543 C 108.237 98.993,134.687 117.859,141.745 122.560 L 144.199 124.193 148.828 121.346 C 161.391 113.620,175.257 109.099,191.214 107.525 C 194.487 107.203,197.259 106.393,200.321 104.864 C 219.944 95.066,254.325 89.741,281.256 92.329 C 292.117 93.373,291.682 92.750,291.949 107.606 C 292.066 114.089,292.305 119.393,292.481 119.393 C 294.751 119.393,359.407 67.716,358.371 66.729 C 357.709 66.099,345.025 56.239,330.185 44.818 C 315.346 33.397,300.719 22.122,297.682 19.761 L 292.160 15.469 291.948 27.694 M189.207 115.759 C 117.725 123.261,85.854 211.406,135.955 263.037 C 184.259 312.817,268.416 289.580,283.627 222.262 C 296.818 163.882,248.627 109.524,189.207 115.759 M217.538 133.857 C 269.514 149.020,287.168 211.977,250.539 251.541 C 209.134 296.262,131.768 269.195,127.700 208.564 L 127.279 202.287 131.262 202.493 L 135.245 202.698 135.433 205.734 C 137.850 244.767,174.352 272.761,211.921 264.392 C 261.338 253.385,278.640 192.986,242.540 157.504 C 210.831 126.337,157.101 137.466,140.246 178.692 C 138.884 182.023,137.684 184.064,137.198 183.878 C 136.757 183.708,135.124 183.189,133.569 182.723 C 130.163 181.702,130.186 180.907,133.855 172.966 C 148.374 141.543,185.081 124.388,217.538 133.857 M62.397 145.293 C 48.096 177.630,47.243 220.840,60.239 254.637 C 62.228 259.811,67.202 271.041,67.803 271.715 C 68.195 272.154,74.874 268.415,74.874 267.757 C 74.874 267.380,74.129 265.603,73.220 263.808 C 56.384 230.584,54.770 186.255,69.102 150.712 L 71.434 144.929 68.938 143.892 C 67.565 143.322,65.901 142.569,65.240 142.219 C 64.218 141.678,63.792 142.139,62.397 145.293 M329.358 143.374 L 325.832 144.985 327.169 148.106 C 329.426 153.371,332.470 162.378,333.946 168.156 C 334.718 171.180,335.473 173.855,335.625 174.100 C 335.943 174.615,342.071 173.452,342.851 172.728 C 344.168 171.504,334.659 141.286,333.089 141.708 C 332.976 141.738,331.297 142.488,329.358 143.374 M203.035 161.107 L 203.035 165.721 206.914 166.573 C 212.190 167.732,218.172 171.014,220.973 174.286 C 223.768 177.551,223.733 177.714,219.758 179.969 L 216.619 181.751 215.285 180.055 C 208.108 170.930,185.818 172.095,182.122 181.789 C 179.076 189.780,185.295 195.734,199.830 198.740 C 215.393 201.958,222.633 208.044,223.748 218.845 C 224.722 228.285,217.951 236.341,206.914 238.876 L 203.035 239.767 203.035 244.336 L 203.035 248.904 198.651 248.904 L 194.266 248.904 194.266 244.289 L 194.266 239.675 190.725 238.881 C 185.285 237.660,180.462 235.135,177.044 231.717 C 173.396 228.069,173.439 227.521,177.547 225.323 L 180.646 223.665 182.681 225.844 C 189.358 232.990,208.235 233.264,213.718 226.294 C 219.976 218.338,212.894 209.275,198.461 206.771 C 188.147 204.981,183.055 202.624,178.253 197.414 C 167.863 186.142,175.236 168.636,191.395 166.213 L 194.266 165.783 194.266 161.138 L 194.266 156.492 198.651 156.492 L 203.035 156.492 203.035 161.107 M338.328 203.170 C 338.178 203.653,337.893 207.690,337.695 212.142 C 336.923 229.553,331.642 248.767,322.783 266.408 L 319.764 272.418 323.193 274.528 C 325.079 275.688,326.701 276.544,326.797 276.430 C 335.284 266.364,345.618 230.670,346.192 209.444 L 346.374 202.698 342.488 202.496 C 339.744 202.353,338.521 202.551,338.328 203.170 M98.427 290.588 C 95.244 293.075,80.284 304.646,65.184 316.301 C 48.562 329.131,37.973 337.736,38.347 338.111 C 38.686 338.450,53.798 350.186,71.927 364.191 L 104.890 389.653 105.228 377.565 C 105.673 361.612,104.039 362.901,123.815 362.901 C 143.354 362.901,172.940 360.289,174.712 358.408 C 175.287 357.798,208.432 298.212,208.432 297.788 C 208.432 297.010,200.894 298.576,198.314 299.891 C 178.223 310.130,145.770 315.411,117.387 313.060 C 104.973 312.032,105.624 312.858,105.353 297.791 C 105.236 291.308,104.933 286.018,104.678 286.035 C 104.424 286.053,101.611 288.102,98.427 290.588 M289.906 306.957 C 261.701 327.626,231.925 343.087,203.523 351.809 C 198.842 353.247,197.668 353.857,197.918 354.723 C 198.091 355.325,198.571 357.123,198.983 358.719 C 199.566 360.972,199.989 361.541,200.878 361.266 C 211.758 357.900,215.333 356.760,217.875 355.849 C 240.340 347.790,266.319 333.819,289.619 317.267 L 299.549 310.212 297.378 307.383 C 296.184 305.826,295.033 304.347,294.821 304.095 C 294.609 303.844,292.397 305.131,289.906 306.957 " stroke="none" fill="#8F929A" fill-rule="evenodd"></path>
    </g>
</svg>